<?xml version="1.0" encoding="UTF-8" standalone="no"?>
<svg
   xmlns:dc="http://purl.org/dc/elements/1.1/"
   xmlns:cc="http://creativecommons.org/ns#"
   xmlns:rdf="http://www.w3.org/1999/02/22-rdf-syntax-ns#"
   xmlns:svg="http://www.w3.org/2000/svg"
   xmlns="http://www.w3.org/2000/svg"
   xmlns:sodipodi="http://sodipodi.sourceforge.net/DTD/sodipodi-0.dtd"
   xmlns:inkscape="http://www.inkscape.org/namespaces/inkscape"
   version="1.0"
   width="256.000000pt"
   height="256.000000pt"
   viewBox="0 0 256.000000 256.000000"
   preserveAspectRatio="xMidYMid meet"
   id="svg24"
   sodipodi:docname="safari-pinned-tab.svg"
   inkscape:version="0.92.5 (2060ec1f9f, 2020-04-08)">
  <defs
     id="defs28" />
  <sodipodi:namedview
     pagecolor="#ffffff"
     bordercolor="#666666"
     borderopacity="1"
     objecttolerance="10"
     gridtolerance="10"
     guidetolerance="10"
     inkscape:pageopacity="0"
     inkscape:pageshadow="2"
     inkscape:window-width="1600"
     inkscape:window-height="850"
     id="namedview26"
     showgrid="false"
     inkscape:zoom="0.69140625"
     inkscape:cx="371.70621"
     inkscape:cy="170.66667"
     inkscape:window-x="0"
     inkscape:window-y="50"
     inkscape:window-maximized="0"
     inkscape:current-layer="svg24" />
  <metadata
     id="metadata2">
Created by potrace 1.11, written by Peter Selinger 2001-2013
<rdf:RDF>
  <cc:Work
     rdf:about="">
    <dc:format>image/svg+xml</dc:format>
    <dc:type
       rdf:resource="http://purl.org/dc/dcmitype/StillImage" />
  </cc:Work>
</rdf:RDF>
</metadata>
  <path
     style="fill:#000000;stroke-width:1.00101173"
     d="m 41.949999,234.45646 v -21.54352 h 4.5 4.49999 v -8.5172 -8.5172 h 4.00001 3.99999 v -4.00811 -4.0081 h -3.99999 -4.00001 v -4.5091 -4.50911 h -4.49999 -4.5 v -4.00809 -4.0081 h -8 -8 V 132.24999 93.672062 h 4 4 v -8.51721 -8.5172 h 3.99999 4.00001 v -13.02632 -13.02631 h 4.5 4.49999 v -8.51721 -8.5172 h 4.00001 3.99999 v -4.0081 -4.0081 h 4.50001 4.5 v -4.50911 -4.5091 h 4.5 4.5 v -4.0081 -4.0080996 h 12.5 H 101.95 v 4.0080996 4.0081 h 8.5 8.50001 v 4.5091 4.50911 h 8.49999 8.5 v -4.50911 -4.5091 h 4.50001 4.49998 v -4.0081 -4.0080996 H 161.95 178.94999 v 4.0080996 4.0081 h 4.00002 3.99999 v 4.5091 4.50911 h 4.5 4.5 v 4.0081 4.0081 h 4.5 4.49999 v 4.00809 4.00809 h 4 4.00001 v 17.53544 17.53542 h 4.50001 4.49999 v 8.5172 8.51721 h 4 3.99999 v 38.577928 38.57794 h -8.49999 -8.5 v 4.0081 4.00809 h -4.00001 -4 v 4.50911 4.5091 h -4.49999 -4.5 v 4.0081 4.00811 h 4.5 4.49999 v 8.5172 8.5172 h 4 4.00001 v 21.54352 21.54353 H 127.45 41.949999 Z M 186.95,157.80161 v -4.0081 h 4.5 4.5 v -4.5091 -4.50911 h 4.5 4.49999 v -13.02632 -13.02632 h -4.49999 -4.5 v 4.50912 4.5091 h -8.5 -8.50001 v 4.50911 4.5091 H 123.45 67.949999 v -4.5091 -4.50911 h -4.5 -4.50001 v -4.5091 -4.50912 h -3.99999 -4.00001 v 13.02632 13.02632 h 4.00001 3.99999 v 4.50911 4.5091 h 4.50001 4.5 v 4.0081 4.00809 H 127.45 h 59.5 z m -76,-85.673068 v -12.52531 h -4.5 -4.5 v -4.50911 -4.5091 h -17.000001 -17 v 4.5091 4.50911 h -4.5 -4.50001 v 8.51721 8.51721 h 9.00001 9 v 4.00809 4.0081 h 17 H 110.95 Z m 67.99999,8.5172 v -4.00809 h 8.50001 8.5 v -8.51721 -8.51721 h -4.5 -4.5 v -4.50911 -4.5091 H 170.44999 153.95 v 4.5091 4.50911 h -4.50001 -4.5 v 12.52531 12.5253 H 161.95 178.94999 Z"
     id="path3724"
     inkscape:connector-curvature="0" />
</svg>
